<svg xmlns="http://www.w3.org/2000/svg" width="82.667" height="47.238" viewBox="0 0 82.667 47.238"><defs><style>.a{fill:#fff;}</style></defs><path class="a" d="M1019.393,55.03c.222-2.257.447-4.583.685-6.909.2-1.937.4-3.874.62-5.808.265-2.294.561-4.584.839-6.876.211-1.755.413-3.51.622-5.264.133-1.127.274-2.253.4-3.38.03-.26.124-.38.45-.378q2.847.021,5.694,0c.319,0,.429.1.46.368.132,1.116.275,2.232.415,3.347q.253,2.018.507,4.034.247,1.957.491,3.916c.168,1.344.343,2.689.5,4.034.152,1.276.292,2.554.429,3.831q.229,2.141.443,4.283c.1,1.038.2,2.077.292,3.117.052.559.1,1.119.157,1.766.049-.72.1-1.355.135-1.99q.158-2.78.392-5.554c.125-1.439.221-2.881.355-4.32.13-1.4.293-2.795.438-4.192.141-1.347.278-2.7.42-4.043.145-1.367.3-2.735.442-4.1q.18-1.693.355-3.384c.028-.269.057-.539.076-.809.014-.2.1-.3.351-.3q3.6.01,7.192,0c.236,0,.334.045.3.293-.3,2.179-.588,4.359-.875,6.539-.277,2.1-.545,4.2-.823,6.3-.253,1.911-.518,3.821-.772,5.732-.235,1.762-.457,3.525-.691,5.287s-.475,3.5-.707,5.255-.456,3.506-.688,5.257-.471,3.5-.7,5.256q-.282,2.12-.557,4.24c-.12.907-.243,1.812-.354,2.718-.031.253-.138.353-.441.351q-3.164-.018-6.327,0c-.284,0-.394-.089-.429-.332q-.435-3-.883-5.993c-.272-1.828-.555-3.655-.821-5.485s-.531-3.658-.774-5.49q-.378-2.851-.711-5.709c-.159-1.345-.286-2.694-.423-3.98-.184,1.8-.356,3.655-.571,5.51q-.352,3.021-.772,6.035c-.321,2.288-.674,4.571-1.022,6.857-.34,2.225-.694,4.447-1.04,6.671q-.116.745-.221,1.491c-.057.41-.062.419-.5.419-2.076,0-4.151-.006-6.227.007-.329,0-.449-.095-.484-.378-.151-1.246-.318-2.49-.481-3.735q-.317-2.419-.636-4.839-.282-2.151-.563-4.3-.319-2.433-.64-4.867c-.189-1.444-.373-2.888-.561-4.332q-.274-2.106-.552-4.212-.29-2.21-.581-4.421c-.214-1.613-.431-3.225-.641-4.838-.234-1.782-.459-3.565-.692-5.348-.231-1.762-.476-3.523-.7-5.286-.1-.827-.16-.668.626-.67,2.209-.009,4.417,0,6.626,0,.423,0,.435.02.477.4.167,1.537.343,3.073.513,4.609.143,1.3.28,2.6.424,3.892.167,1.506.34,3.012.506,4.518.146,1.327.3,2.654.424,3.982q.209,2.173.378,4.349c.087,1.12.152,2.242.221,3.363C1019.26,52.727,1019.327,53.915,1019.393,55.03Z" transform="translate(-960.195 -26.415)"/><path class="a" d="M955.672,50.032V26.959c0-.535,0-.536.6-.536,3.618,0,7.237-.011,10.854,0a11.652,11.652,0,0,1,6.307,1.711,9.6,9.6,0,0,1,3.792,4.651,15.82,15.82,0,0,1,1.07,4.547,22.158,22.158,0,0,1-.551,7.953,11.807,11.807,0,0,1-3.2,5.64,11.015,11.015,0,0,1-6.148,2.888,26.031,26.031,0,0,1-3.916.175c-.441,0-.442,0-.442.4V73.156c0,.489,0,.489-.543.489h-7.324c-.493,0-.495,0-.495-.45Zm8.362-9.888c0,2.3.005,4.6-.007,6.9,0,.3.1.385.42.373.554-.021,1.111.006,1.664-.018a3.172,3.172,0,0,0,2.025-.8,4.36,4.36,0,0,0,1.191-1.924,13.394,13.394,0,0,0,.582-3.954,21.819,21.819,0,0,0-.192-3.784,6.776,6.776,0,0,0-.759-2.482,2.9,2.9,0,0,0-2.233-1.5A18,18,0,0,0,964.5,32.9c-.462-.007-.463,0-.463.41Q964.032,36.725,964.034,40.144Z" transform="translate(-955.672 -26.416)"/><path class="a" d="M996.721,53.568V73.059c0,.11-.006.221,0,.331.008.174-.068.267-.271.256-.1-.006-.2,0-.3,0q-3.63,0-7.259,0c-.632,0-.6.06-.6-.532V34.493c0-.221-.014-.443,0-.662.02-.251-.087-.332-.362-.329-1.188.01-2.375,0-3.563,0-.888,0-1.776-.009-2.664.006-.317.006-.419-.088-.419-.379.011-2.1.006-4.2.006-6.3,0-.411,0-.412.46-.412h18.813c.944,0,1.887.011,2.831-.006.311,0,.394.094.393.364q-.015,3.178,0,6.356c0,.3-.115.374-.425.372-2.063-.009-4.128,0-6.193,0-.451,0-.452,0-.452.419Z" transform="translate(-957.397 -26.416)"/></svg>